<svg id="svg" xmlns="http://www.w3.org/2000/svg" xmlns:xlink="http://www.w3.org/1999/xlink" width="36" height="36" viewBox="0, 0, 400,400"><g id="svgg"><path id="path0" d="M181.250 3.920 C 64.663 16.007,-15.433 124.360,7.536 238.918 C 27.298 337.477,119.756 405.554,219.994 395.350 C 342.759 382.854,423.518 262.135,388.572 143.359 C 366.876 69.619,303.940 16.004,225.781 4.679 C 217.948 3.544,189.548 3.060,181.250 3.920 M298.150 97.165 C 302.251 108.924,302.851 109.511,314.518 113.173 C 327.651 117.296,327.642 118.585,314.453 122.849 C 302.619 126.675,302.218 127.068,298.763 138.221 C 294.348 152.469,293.017 152.539,288.712 138.748 C 285.256 127.677,284.597 127.041,272.418 123.047 C 259.575 118.834,259.526 117.985,271.875 113.626 C 276.816 111.882,281.467 110.177,282.211 109.837 C 284.318 108.875,286.273 104.943,288.656 96.875 C 292.383 84.253,293.661 84.292,298.150 97.165 M139.529 114.911 C 166.012 119.965,183.164 129.302,221.038 159.279 C 293.877 216.932,304.350 219.593,360.078 194.611 C 368.500 190.835,375.511 188.052,375.659 188.427 C 376.999 191.832,370.976 213.503,365.602 224.609 C 342.170 273.042,291.119 291.707,235.263 272.265 C 206.203 262.150,180.316 244.601,147.491 212.765 C 105.132 171.681,82.788 167.812,30.747 192.549 L 21.702 196.849 22.219 193.151 C 29.566 140.630,84.014 104.316,139.529 114.911 M97.394 291.665 C 103.745 298.595,98.813 309.381,89.297 309.372 C 81.521 309.364,76.470 300.728,80.116 293.677 C 83.327 287.467,92.562 286.392,97.394 291.665 "  fill="currentColor" ></path></g></svg>