<svg id="svg" version="1.1" xmlns="http://www.w3.org/2000/svg" xmlns:xlink="http://www.w3.org/1999/xlink" width="400" height="400" viewBox="0, 0, 400,400"><g id="svgg"><path id="path0" d="M 730.06 679.64 q -45.377 53.444 -101.84 83.443 t -120 29.999 q -64.032 0 -120.75 -30.503 t -102.6 -84.451 q -40.335 13.109 -77.645 29.747 t -53.948 26.722 l -17.142 10.084 Q 106.388 763.84 84.96 802.41 t -21.428 73.107 t 25.461 59.242 t 60.754 24.705 h 716.95 q 35.293 0 60.754 -24.705 t 25.461 -59.242 t -21.428 -72.603 t -51.679 -57.225 q -6.554 -4.033 -18.907 -10.84 t -51.427 -24.453 t -79.409 -30.755 Z m -221.84 25.72 q -34.285 0 -67.561 -14.873 t -60.754 -40.335 t -51.175 -60.502 t -40.083 -75.124 t -25.461 -84.451 t -9.075 -87.728 q 0 -64.032 19.915 -116.22 t 54.452 -85.964 t 80.67 -51.931 t 99.072 -18.151 t 99.072 18.151 t 80.67 51.931 t 54.452 85.964 t 19.915 116.22 q 0 65.04 -20.167 130.58 t -53.948 116.72 t -81.426 83.443 t -98.568 32.268 Z"  fill="currentColor" ></path></g></svg>